<?xml version="1.0" encoding="UTF-8"?>
<svg id="Layer_1" xmlns="http://www.w3.org/2000/svg" version="1.1" viewBox="0 0 31.9 32">
  <!-- Generator: Adobe Illustrator 30.1.0, SVG Export Plug-In . SVG Version: 2.1.1 Build 136)  -->
  <defs>
    <style>
      .st0 {
        fill: #f50;
      }

      .st1 {
        fill: #292524;
      }
    </style>
  </defs>
  <g id="Livello_1">
    <g>
      <path class="st0" d="M24.3,12.1c.4-.6.7-1.2.9-1.9.2-.7.3-1.4.3-2.2s-.2-2-.6-2.9c-.4-.9-.9-1.7-1.6-2.4s-1.5-1.2-2.4-1.6c-.9-.4-1.9-.6-2.9-.6H5.8v4.4h12.2c.3,0,.7,0,1,.2s.6.4.8.6c.2.3.4.6.6.9.1.4.2.7.2,1.1s0,.8-.2,1.1c-.1.4-.3.7-.6.9-.2.3-.5.5-.8.6s-.6.2-1,.2H5.8v20.9h5v-15.9h9c.3,0,.7,0,1,.3.3.2.6.4.8.7.2.3.4.6.6.9.1.4.2.7.2,1.1s0,.7-.2,1-.3.6-.5.9-.5.5-.8.7-.6.3-1,.3h-5.9v4.4h5.8c1,0,2-.2,2.9-.6.9-.4,1.7-.9,2.4-1.6s1.2-1.5,1.6-2.4c.4-.9.6-1.9.6-2.9,0-4.6-3-6-3-6Z"/>
      <path class="st1" d="M11.3,32h-6V10.1h12.7c.3,0,.5,0,.7-.2.3-.1.5-.3.7-.5h0c.2-.2.3-.4.4-.7.1-.3.2-.6.2-.9s0-.6-.2-.9c-.1-.3-.3-.6-.5-.8-.2-.2-.4-.4-.7-.5-.2-.1-.5-.2-.7-.2H5.3V0h12.7C19.1,0,20.2.2,21.1.6c.9.4,1.8,1,2.6,1.7.7.7,1.3,1.6,1.7,2.6.4,1,.6,2.3.6,3.1s-.1,1.6-.3,2.3c-.2.6-.4,1.1-.7,1.6.9.6,2.8,2.4,2.8,6.2s-.2,2.1-.6,3.1c-.4.9-1,1.8-1.7,2.5-.7.7-1.6,1.3-2.6,1.7-1,.4-2,.6-3.1.6h-6.3v-5.4h6.4c.2,0,.5,0,.7-.2.2-.1.5-.3.7-.5.2-.2.3-.4.4-.8.1-.3.2-.5.2-.8s0-.6-.2-.9c-.1-.3-.3-.6-.5-.8-.2-.2-.4-.4-.7-.6h0c-.2-.1-.4-.2-.7-.2h-8.5v15.9ZM6.3,31h4v-15.9h9.5c.4,0,.8.1,1.2.3.4.2.7.4.9.8.2.3.5.6.6,1,.2.4.2.8.2,1.2s0,.8-.2,1.2c-.2.4-.4.8-.6,1-.3.3-.6.6-.9.8-.4.2-.8.3-1.2.3h-5.4v3.4h5.3c1,0,1.9-.2,2.7-.6.9-.4,1.6-.9,2.2-1.5.7-.7,1.2-1.4,1.5-2.2.4-.9.6-1.8.6-2.7,0-4.2-2.6-5.5-2.7-5.5l-.5-.2.3-.5c.4-.6.6-1.2.8-1.8.2-.6.3-1.3.3-2s-.2-1.9-.6-2.7c-.4-.9-.9-1.6-1.5-2.2-.6-.6-1.4-1.2-2.2-1.5-.9-.4-1.8-.6-2.7-.6H6.3v3.4h11.7c.4,0,.8,0,1.2.3.4.2.7.5,1,.7.2.3.5.6.6,1,.2.4.2.8.2,1.3s0,.9-.2,1.3c-.2.4-.4.8-.7,1-.3.3-.6.5-.9.7-.4.2-.8.3-1.2.3H6.3v19.9Z"/>
    </g>
    <g>
      <path class="st0" d="M26.5,14.7h0"/>
      <path class="st1" d="M26.5,14.7"/>
    </g>
  </g>
</svg>