<?xml version="1.0" encoding="UTF-8"?>
<svg id="Layer_2" xmlns="http://www.w3.org/2000/svg" version="1.1" viewBox="0 0 450.4 161.8">
  <!-- Generator: Adobe Illustrator 30.1.0, SVG Export Plug-In . SVG Version: 2.1.1 Build 136)  -->
  <defs>
    <style>
      .st0 {
        fill: #292524;
      }

      .st1 {
        fill: #f50;
        stroke: #292524;
        stroke-miterlimit: 10;
        stroke-width: 5px;
      }
    </style>
  </defs>
  <g id="Livello_1">
    <path class="st1" d="M107.1,74.1c-2.8-5.3-6.5-9.6-11-12.9,1.9-3,3.4-6.2,4.5-9.7,1.1-3.4,1.6-7.1,1.6-11s-1-10.1-3-14.8c-2-4.6-4.7-8.7-8.1-12.1s-7.5-6.2-12.1-8.1c-4.6-2-9.6-3-14.8-3H2.5v22.1h61.7c1.7,0,3.3.4,4.8,1.2s2.9,1.8,4.1,3.2c1.2,1.3,2.1,2.9,2.8,4.6.7,1.8,1,3.6,1,5.5s-.3,3.8-1,5.5c-.7,1.8-1.6,3.3-2.8,4.5-1.2,1.3-2.6,2.3-4.1,3.1s-3.1,1.2-4.8,1.2H2.5v105.4h25.3v-80.2h45.4c1.7,0,3.3.4,4.8,1.3,1.5.8,2.9,1.9,4.1,3.3,1.2,1.3,2.1,2.9,2.8,4.6.7,1.8,1,3.5,1,5.3s-.3,3.4-1,5.1-1.5,3.2-2.6,4.5-2.4,2.4-3.9,3.3-3.1,1.4-4.8,1.4h-29.6v22.1h29.2c5.2,0,10.1-1,14.8-3,4.6-2,8.7-4.7,12.1-8.2s6.2-7.5,8.1-12.1c2-4.6,3-9.5,3-14.8s-1.4-11.9-4.2-17.1v-.2h0Z"/>
    <g>
      <path class="st0" d="M42.9,147.2c0-.8.2-1.6.5-2.3s.7-1.3,1.3-1.9c.5-.5,1.1-.9,1.9-1.3.7-.3,1.5-.5,2.3-.5h8.9v3.9h-8.9c-.3,0-.5,0-.8.1-.2.1-.4.2-.6.4-.2.2-.3.4-.4.6v1.6c0,.2.2.4.4.6s.4.3.6.4c.2.1.5.1.8.1h3.9c.8,0,1.6.2,2.3.5s1.3.7,1.9,1.2c.5.5.9,1.1,1.2,1.9.3.7.5,1.5.5,2.3s-.2,1.6-.5,2.3-.7,1.3-1.2,1.9c-.5.5-1.1.9-1.9,1.3-.7.3-1.5.5-2.3.5h-8.6v-3.9h8.6c.3,0,.5,0,.8-.1s.4-.2.6-.4c.2-.2.3-.4.4-.6v-1.6c0-.2-.2-.4-.4-.6s-.4-.3-.6-.4c-.2,0-.5-.1-.8-.1h-3.9c-.8,0-1.6-.2-2.3-.5s-1.3-.7-1.9-1.3c-.5-.5-.9-1.1-1.3-1.9-.3-.7-.5-1.5-.5-2.3h0Z"/>
      <path class="st0" d="M65.2,159.5c0,.3,0,.6-.2.9s-.3.5-.5.7-.5.4-.7.5-.6.2-.9.2-.6,0-.9-.2-.5-.3-.7-.5-.4-.5-.5-.7-.2-.6-.2-.9,0-.6.2-.9.3-.5.5-.7.5-.4.7-.5.6-.2.9-.2.6,0,.9.2c.3.2.5.3.7.5s.4.5.5.7.2.6.2.9Z"/>
      <path class="st0" d="M72.3,160.8h-3.9v-19.5h7.8c.7,0,1.4,0,2.1.3.7.2,1.3.4,1.9.8.6.3,1.1.7,1.6,1.2s.9,1,1.2,1.6c.3.6.6,1.2.8,1.9.2.7.3,1.3.3,2.1s0,1.3-.2,2c-.2.6-.4,1.2-.7,1.8-.3.6-.7,1.1-1.1,1.6s-1,.9-1.5,1.2l2.2,5.1h-4.1l-1.7-3.9h-4.4v3.9h-.3q0-.1,0-.1ZM72.3,145.3v7.8h3.9c.5,0,1-.1,1.5-.3s.9-.5,1.2-.8.6-.8.8-1.2c.2-.5.3-1,.3-1.5s0-1-.3-1.5c-.2-.5-.5-.9-.8-1.2s-.8-.6-1.2-.8-1-.3-1.5-.3h-3.9v-.2Z"/>
      <path class="st0" d="M90.7,159.5c0,.3,0,.6-.2.9s-.3.5-.5.7-.5.4-.7.5-.6.2-.9.2-.6,0-.9-.2-.5-.3-.7-.5-.4-.5-.5-.7-.2-.6-.2-.9,0-.6.2-.9.3-.5.5-.7.5-.4.7-.5.6-.2.9-.2.6,0,.9.2.5.3.7.5.4.5.5.7.2.6.2.9Z"/>
      <path class="st0" d="M107.5,160.8h-13.6v-19.5h3.9v15.6h9.7v3.9Z"/>
    </g>
    <path class="st0" d="M161.1,116.8c0,2.1-.4,4-1.2,5.8s-1.9,3.4-3.2,4.8c-1.4,1.4-2.9,2.4-4.8,3.2-1.8.8-3.8,1.2-5.8,1.2h-25v-50.1h25c2.1,0,4,.4,5.8,1.2,1.8.8,3.4,1.9,4.8,3.2,1.4,1.4,2.4,2.9,3.2,4.8.8,1.8,1.2,3.8,1.2,5.8s-.1,1.9-.4,2.9-.6,1.9-1.1,2.8-1,1.7-1.7,2.5c-.7.7-1.4,1.4-2.2,1.9.8.4,1.5,1,2.2,1.8s1.2,1.6,1.7,2.5.8,1.9,1.1,2.8c.2,1,.4,1.9.4,2.9h0ZM131,101.8h15c.7,0,1.3,0,2-.4.6-.3,1.1-.6,1.6-1.1s.8-1,1.1-1.6.4-1.3.4-2-.1-1.3-.4-2c-.3-.6-.6-1.1-1.1-1.6s-1-.8-1.6-1.1c-.6-.3-1.3-.4-2-.4h-15v10.2ZM131,121.8h15c.7,0,1.3,0,2-.4.6-.3,1.1-.6,1.6-1.1s.8-1,1.1-1.6.4-1.3.4-2-.1-1.3-.4-2c-.3-.6-.6-1.1-1.1-1.6s-1-.8-1.6-1.1c-.6-.3-1.3-.4-2-.4h-15v10.2Z"/>
    <path class="st0" d="M201,131.9h-34.3v-50.1h34.3v10h-24.3v10h16.4v10h-16.4v10h24.3v10.1Z"/>
    <path class="st0" d="M241.1,131.9h-35v-50.1h10v40h25v10.1Z"/>
    <path class="st0" d="M254.3,131.9h-10v-50.1h20c1.8,0,3.6.2,5.3.7,1.7.5,3.3,1.2,4.8,2,1.5.9,2.8,1.9,4,3.1s2.3,2.6,3.1,4.1c.9,1.5,1.5,3.1,2,4.8.5,1.7.7,3.5.7,5.3,0,2.7-.5,5.3-1.6,7.8-1,2.4-2.5,4.6-4.3,6.4s-3.9,3.2-6.4,4.3c-2.4,1-5,1.6-7.8,1.6h-10v10h.2ZM254.3,91.8v20h10c1.4,0,2.7-.3,3.9-.8,1.2-.5,2.3-1.2,3.2-2.1.9-.9,1.6-2,2.1-3.2s.8-2.5.8-3.9-.3-2.7-.8-3.9c-.5-1.2-1.2-2.3-2.1-3.2-.9-.9-2-1.6-3.2-2.1s-2.5-.8-3.9-.8h-10,0Z"/>
    <path class="st0" d="M298.2,131.9h-10v-50.1h20c1.8,0,3.6.2,5.3.7,1.7.5,3.3,1.2,4.8,2,1.5.9,2.8,1.9,4,3.1s2.3,2.6,3.1,4.1c.9,1.5,1.5,3.1,2,4.8.5,1.7.7,3.5.7,5.3s-.2,3.4-.6,5-1,3.2-1.9,4.6c-.8,1.5-1.8,2.8-2.9,4-1.2,1.2-2.5,2.3-3.9,3.2l5.6,13.1h-10.6l-4.4-10.1h-11.2v10.3ZM298.2,91.8v20h10c1.4,0,2.7-.3,3.9-.8,1.2-.5,2.3-1.2,3.2-2.1s1.6-2,2.1-3.2.8-2.5.8-3.9-.3-2.7-.8-3.9c-.5-1.2-1.2-2.3-2.1-3.2-.9-.9-2-1.6-3.2-2.1s-2.5-.8-3.9-.8h-10Z"/>
    <path class="st0" d="M366.2,131.9h-34.3v-50.1h34.3v10h-24.3v10h16.4v10h-16.4v10h24.3v10.1Z"/>
    <path class="st0" d="M368.7,96.8c0-2.1.4-4,1.2-5.8s1.9-3.4,3.2-4.8c1.4-1.4,2.9-2.4,4.8-3.2,1.8-.8,3.8-1.2,5.8-1.2h23v10h-23c-.7,0-1.4,0-2,.4s-1.1.6-1.6,1.1-.8,1-1.1,1.6-.4,1.3-.4,2,.1,1.4.4,2,.6,1.2,1.1,1.6c.5.5,1,.8,1.6,1.1.6.3,1.3.4,2,.4h10c2.1,0,4,.4,5.8,1.2,1.8.8,3.4,1.9,4.8,3.2,1.4,1.4,2.4,3,3.2,4.8s1.2,3.8,1.2,5.8-.4,4-1.2,5.8-1.9,3.4-3.2,4.8c-1.4,1.4-3,2.4-4.8,3.2s-3.8,1.2-5.8,1.2h-22.2v-10h22.2c.7,0,1.3,0,2-.4.6-.3,1.1-.6,1.6-1.1s.8-1,1.1-1.6.4-1.3.4-2-.1-1.3-.4-2c-.3-.6-.6-1.1-1.1-1.6s-1-.8-1.6-1.1c-.6-.3-1.3-.4-2-.4h-10c-2.1,0-4-.4-5.8-1.2-1.8-.8-3.4-1.9-4.8-3.2s-2.4-3-3.2-4.8-1.2-3.8-1.2-5.8Z"/>
    <path class="st0" d="M410.4,96.8c0-2.1.4-4,1.2-5.8s1.9-3.4,3.2-4.8c1.4-1.4,2.9-2.4,4.8-3.2,1.8-.8,3.8-1.2,5.8-1.2h23v10h-23c-.7,0-1.4,0-2,.4s-1.1.6-1.6,1.1-.8,1-1.1,1.6-.4,1.3-.4,2,.1,1.4.4,2,.6,1.2,1.1,1.6c.5.5,1,.8,1.6,1.1.6.3,1.3.4,2,.4h10c2.1,0,4,.4,5.8,1.2,1.8.8,3.4,1.9,4.8,3.2,1.4,1.4,2.4,3,3.2,4.8s1.2,3.8,1.2,5.8-.4,4-1.2,5.8-1.9,3.4-3.2,4.8c-1.4,1.4-3,2.4-4.8,3.2s-3.8,1.2-5.8,1.2h-22.2v-10h22.2c.7,0,1.3,0,2-.4.6-.3,1.1-.6,1.6-1.1s.8-1,1.1-1.6.4-1.3.4-2-.1-1.3-.4-2c-.3-.6-.6-1.1-1.1-1.6s-1-.8-1.6-1.1c-.6-.3-1.3-.4-2-.4h-10c-2.1,0-4-.4-5.8-1.2-1.8-.8-3.4-1.9-4.8-3.2-1.4-1.4-2.4-3-3.2-4.8s-1.2-3.8-1.2-5.8Z"/>
    <path class="st0" d="M124.9,160.8h-3.9v-19.5h7.8c.7,0,1.4,0,2.1.3.7.2,1.3.4,1.9.8.6.3,1.1.7,1.6,1.2s.9,1,1.2,1.6.6,1.2.8,1.9.3,1.4.3,2.1c0,1.1-.2,2.1-.6,3s-1,1.8-1.7,2.5-1.5,1.3-2.5,1.7c-.9.4-2,.6-3,.6h-3.9v3.9s0-.1-.1-.1ZM124.9,145.1v7.8h3.9c.5,0,1-.1,1.5-.3s.9-.5,1.2-.8.6-.8.8-1.2c.2-.5.3-1,.3-1.5s-.1-1-.3-1.5-.5-.9-.8-1.2-.8-.6-1.2-.8c-.5-.2-1-.3-1.5-.3h-3.9v-.2Z"/>
    <path class="st0" d="M142.8,160.8h-3.9v-19.5h7.8c.7,0,1.4,0,2.1.3.7.2,1.3.4,1.9.8.6.3,1.1.7,1.6,1.2s.9,1,1.2,1.6.6,1.2.8,1.9.3,1.4.3,2.1,0,1.3-.3,2c-.2.6-.4,1.2-.7,1.8s-.7,1.1-1.2,1.6-1,.9-1.5,1.3l2.2,5.1h-4.2l-1.7-3.9h-4.4v3.9-.2h0ZM142.8,145.1v7.8h3.9c.5,0,1-.1,1.5-.3s.9-.5,1.2-.8.6-.8.8-1.2c.2-.5.3-1,.3-1.5s-.1-1-.3-1.5-.5-.9-.8-1.2-.8-.6-1.2-.8c-.5-.2-1-.3-1.5-.3h-3.9v-.2Z"/>
    <path class="st0" d="M170.5,160.8h-13.4v-19.5h13.4v3.9h-9.5v3.9h6.4v3.9h-6.4v3.9h9.5v3.9h0Z"/>
    <path class="st0" d="M171.9,147.1c0-.8.2-1.6.5-2.3s.7-1.3,1.3-1.9c.5-.5,1.2-1,1.9-1.3s1.5-.5,2.3-.5h9v3.9h-9c-.3,0-.5,0-.8.1-.2.1-.4.2-.6.4-.2.2-.3.4-.4.6s-.2.5-.2.8,0,.5.2.8c0,.2.2.4.4.6.2.2.4.3.6.4s.5.1.8.1h3.9c.8,0,1.6.2,2.3.5s1.3.7,1.9,1.3c.5.5.9,1.2,1.3,1.9.3.7.5,1.5.5,2.3s-.2,1.6-.5,2.3-.7,1.3-1.3,1.9c-.5.5-1.2,1-1.9,1.3s-1.5.5-2.3.5h-8.7v-3.9h8.7c.3,0,.5,0,.8-.1.2,0,.4-.2.6-.4.2-.2.3-.4.4-.6,0-.2.1-.5.1-.8s0-.5-.1-.8c-.1-.2-.2-.4-.4-.6-.2-.2-.4-.3-.6-.4-.2,0-.5-.2-.8-.2h-3.9c-.8,0-1.6-.2-2.3-.5s-1.3-.7-1.9-1.3-1-1.2-1.3-1.9-.5-1.5-.5-2.3h0Z"/>
    <path class="st0" d="M188.9,147.1c0-.8.2-1.6.5-2.3s.7-1.3,1.3-1.9c.5-.5,1.2-1,1.9-1.3s1.5-.5,2.3-.5h9v3.9h-9c-.3,0-.5,0-.8.1-.2.1-.4.2-.6.4-.2.2-.3.4-.4.6s-.2.5-.2.8,0,.5.2.8c0,.2.2.4.4.6.2.2.4.3.6.4s.5.1.8.1h3.9c.8,0,1.6.2,2.3.5s1.3.7,1.9,1.3c.5.5.9,1.2,1.3,1.9.3.7.5,1.5.5,2.3s-.2,1.6-.5,2.3-.7,1.3-1.3,1.9c-.5.5-1.2,1-1.9,1.3s-1.5.5-2.3.5h-8.7v-3.9h8.7c.3,0,.5,0,.8-.1.2,0,.4-.2.6-.4.2-.2.3-.4.4-.6,0-.2.1-.5.1-.8s0-.5-.1-.8c-.1-.2-.2-.4-.4-.6-.2-.2-.4-.3-.6-.4-.2,0-.5-.2-.8-.2h-3.9c-.8,0-1.6-.2-2.3-.5s-1.3-.7-1.9-1.3-1-1.2-1.3-1.9-.5-1.5-.5-2.3h0Z"/>
    <path class="st0" d="M226.3,151.1c0,.9-.1,1.8-.4,2.7-.2.9-.6,1.7-1,2.4s-1,1.4-1.6,2.1-1.3,1.1-2,1.6c-.7.4-1.5.8-2.4,1s-1.8.4-2.7.4-1.8-.1-2.7-.4c-.9-.2-1.7-.6-2.4-1s-1.4-1-2.1-1.6-1.1-1.3-1.6-2.1c-.4-.7-.8-1.6-1-2.4-.2-.9-.4-1.8-.4-2.7s.1-1.8.4-2.7c.2-.9.6-1.7,1-2.4s1-1.4,1.6-2,1.3-1.1,2.1-1.6c.7-.4,1.6-.8,2.4-1s1.8-.4,2.7-.4,1.8.1,2.7.4c.9.2,1.7.6,2.4,1s1.4,1,2,1.6,1.1,1.3,1.6,2c.4.7.8,1.5,1,2.4s.4,1.8.4,2.7ZM222.4,151.1c0-.9-.2-1.7-.5-2.4s-.8-1.4-1.3-2-1.2-1-2-1.3-1.6-.5-2.4-.5-1.7.2-2.4.5-1.4.8-2,1.3c-.6.6-1,1.2-1.3,2s-.5,1.6-.5,2.4.2,1.7.5,2.4.8,1.4,1.3,2c.6.6,1.2,1,2,1.3s1.6.5,2.4.5,1.7-.2,2.4-.5,1.4-.8,2-1.3c.6-.6,1-1.2,1.3-2,.3-.7.5-1.6.5-2.4Z"/>
    <path class="st0" d="M232.7,160.8h-3.9v-19.5h13.7v3.9h-9.8v3.9h5.9v3.9h-5.9v7.8h0Z"/>
    <path class="st0" d="M259.9,152.9c0,1.1-.2,2.1-.6,3s-1,1.8-1.7,2.5-1.5,1.3-2.5,1.7c-.9.4-2,.6-3,.6s-2.1-.2-3-.6-1.8-1-2.5-1.7-1.3-1.5-1.7-2.5c-.4-.9-.6-2-.6-3v-11.7h3.9v11.7c0,.5.1,1,.3,1.5s.5.9.8,1.2.8.6,1.2.8c.5.2,1,.3,1.5.3s1-.1,1.5-.3.9-.5,1.2-.8.6-.8.8-1.2c.2-.5.3-1,.3-1.5v-11.7h3.9v11.7h.2Z"/>
    <path class="st0" d="M262.2,147.1c0-.8.2-1.6.5-2.3s.7-1.3,1.3-1.9c.5-.5,1.2-1,1.9-1.3.7-.3,1.5-.5,2.3-.5h9v3.9h-9c-.3,0-.5,0-.8.1-.2.1-.4.2-.6.4s-.3.4-.4.6-.2.5-.2.8,0,.5.2.8c0,.2.2.4.4.6.2.2.4.3.6.4s.5.1.8.1h3.9c.8,0,1.6.2,2.3.5.7.3,1.3.7,1.9,1.3s.9,1.2,1.3,1.9c.3.7.5,1.5.5,2.3s-.2,1.6-.5,2.3-.7,1.3-1.3,1.9c-.5.5-1.2,1-1.9,1.3-.7.3-1.5.5-2.3.5h-8.7v-3.9h8.7c.3,0,.5,0,.8-.1.2,0,.4-.2.6-.4s.3-.4.4-.6c0-.2.1-.5.1-.8s0-.5-.1-.8c-.1-.2-.2-.4-.4-.6-.2-.2-.4-.3-.6-.4-.2,0-.5-.2-.8-.2h-3.9c-.8,0-1.6-.2-2.3-.5s-1.3-.7-1.9-1.3-1-1.2-1.3-1.9-.5-1.5-.5-2.3h0Z"/>
    <path class="st0" d="M284.3,160.8h-3.9v-19.5h3.9v19.5Z"/>
    <path class="st0" d="M307,151.1c0,.9-.1,1.8-.4,2.7-.2.9-.6,1.7-1,2.4s-1,1.4-1.6,2.1-1.3,1.1-2,1.6c-.7.4-1.5.8-2.4,1s-1.8.4-2.7.4-1.8-.1-2.7-.4c-.9-.2-1.7-.6-2.4-1-.7-.4-1.4-1-2.1-1.6s-1.1-1.3-1.6-2.1c-.4-.7-.8-1.6-1-2.4-.2-.9-.4-1.8-.4-2.7s.1-1.8.4-2.7c.2-.9.6-1.7,1-2.4s1-1.4,1.6-2,1.3-1.1,2.1-1.6c.7-.4,1.6-.8,2.4-1s1.8-.4,2.7-.4,1.8.1,2.7.4c.9.2,1.7.6,2.4,1,.7.4,1.4,1,2,1.6s1.1,1.3,1.6,2c.4.7.8,1.5,1,2.4s.4,1.8.4,2.7ZM303.1,151.1c0-.9-.2-1.7-.5-2.4s-.8-1.4-1.3-2-1.2-1-2-1.3-1.6-.5-2.4-.5-1.7.2-2.4.5-1.4.8-2,1.3c-.6.6-1,1.2-1.3,2s-.5,1.6-.5,2.4.2,1.7.5,2.4.8,1.4,1.3,2c.6.6,1.2,1,2,1.3s1.6.5,2.4.5,1.7-.2,2.4-.5,1.4-.8,2-1.3c.6-.6,1-1.2,1.3-2,.3-.7.5-1.6.5-2.4Z"/>
    <path class="st0" d="M325.2,160.8h-4.2l-7.5-12.9v12.9h-3.9v-19.5h4.2l7.5,12.9v-12.9h3.9v19.5h0Z"/>
    <path class="st0" d="M332.7,160.8h-3.9v-19.5h3.9v19.5Z"/>
  </g>
</svg>